<?xml version="1.0" encoding="iso-8859-1"?>
<!-- Uploaded to: SVG Repo, www.svgrepo.com, Generator: SVG Repo Mixer Tools -->
<svg height="800px" width="800px" version="1.1" id="Layer_1" xmlns="http://www.w3.org/2000/svg" xmlns:xlink="http://www.w3.org/1999/xlink" 
	 viewBox="0 0 512 512" xml:space="preserve">
<path style="fill:#665A4B;" d="M181.347,63.523c-4.346-4.346-4.346-11.394,0-15.742c4.346-4.346,11.394-4.346,15.742,0
	l58.436,58.436L345.043,3.735c4.084-4.594,11.119-5.008,15.714-0.925c4.595,4.084,5.009,11.119,0.925,15.714l-89.52,102.481
	c-4.057,4.563-9.883,7.283-15.984,7.462c-0.215,0.007-0.431,0.01-0.646,0.01c-5.877,0-11.585-2.355-15.748-6.519L181.347,63.523z
	 M400.696,489.739H267.13v-33.391c0-6.147-4.983-11.13-11.13-11.13s-11.13,4.983-11.13,11.13v33.391H111.304
	c-6.147,0-11.13,4.983-11.13,11.13c0,6.147,4.983,11.13,11.13,11.13h289.391c6.147,0,11.13-4.983,11.13-11.13
	C411.826,494.722,406.843,489.739,400.696,489.739z"/>
<path style="fill:#494434;" d="M467.478,467.478H44.522C19.934,467.478,0,447.545,0,422.957V144.696
	c0-24.588,19.933-44.522,44.522-44.522h422.956c24.588,0,44.522,19.933,44.522,44.522v278.261
	C512,447.545,492.066,467.478,467.478,467.478z"/>
<path style="fill:#627C78;" d="M512,422.957H0V144.696h512V422.957z"/>
<path style="fill:#748C88;" d="M378.435,422.957H189.217l89.043-278.261h189.217L378.435,422.957z"/>
<path style="fill:#DDAC5E;" d="M384,235.965c0,23.564-19.102,42.666-42.666,42.666c-1.341,0-2.667-0.07-3.977-0.191
	c2.578,8.139,3.977,16.8,3.977,25.791c0,47.128-38.205,85.334-85.334,85.334s-85.334-38.205-85.334-85.334
	c0-8.991,1.399-17.653,3.977-25.791c-1.31,0.121-2.636,0.191-3.977,0.191c-23.564,0-42.666-19.102-42.666-42.666
	s19.102-42.666,42.666-42.666c21.728,0,39.648,16.245,42.312,37.248c12.634-7.393,27.326-11.648,43.021-11.648
	s30.387,4.256,43.021,11.648c2.665-21.004,20.585-37.248,42.312-37.248C364.898,193.299,384,212.401,384,235.965z"/>
<path style="fill:#FFDB80;" d="M384,235.965c0,23.564-19.102,42.666-42.666,42.666c-1.342,0-2.667-0.07-3.977-0.191
	c2.578,8.139,3.977,16.8,3.977,25.791c0,47.128-38.205,85.334-85.334,85.334c-19.009,0-36.56-6.222-50.744-16.73l49.251-153.911
	c0.498-0.009,0.993-0.026,1.493-0.026c15.695,0,30.387,4.256,43.021,11.648c2.665-21.004,20.585-37.248,42.312-37.248
	C364.898,193.299,384,212.401,384,235.965z"/>
</svg>